<svg xmlns="http://www.w3.org/2000/svg" xmlns:xlink="http://www.w3.org/1999/xlink" fill="none" version="1.1" width="48" height="55.63671875" viewBox="0 0 48 55.63671875"><defs><filter id="master_svg0_226_68957" filterUnits="objectBoundingBox" color-interpolation-filters="sRGB" x="-3.5005457401275635" y="-3.5005457401275635" width="45.62957048416138" height="19.096012592315674"><feFlood flood-opacity="0" result="BackgroundImageFix"/><feBlend mode="normal" in="SourceGraphic" in2="BackgroundImageFix" result="shape"/><feGaussianBlur stdDeviation="0.8751364350318909" result="effect1_foregroundBlur"/></filter><linearGradient x1="0.5000060200691223" y1="0" x2="0.5000060200691223" y2="1.0000040531158447" id="master_svg1_44_26158"><stop offset="0%" stop-color="#E87D00" stop-opacity="1"/><stop offset="48.95833432674408%" stop-color="#E87D00" stop-opacity="0"/><stop offset="100%" stop-color="#E87D00" stop-opacity="1"/></linearGradient><filter id="master_svg2_226_68956" filterUnits="objectBoundingBox" color-interpolation-filters="sRGB" x="-3.5005457401275635" y="-3.5005457401275635" width="31.792503833770752" height="13.804484844207764"><feFlood flood-opacity="0" result="BackgroundImageFix"/><feBlend mode="normal" in="SourceGraphic" in2="BackgroundImageFix" result="shape"/><feGaussianBlur stdDeviation="0.8751364350318909" result="effect1_foregroundBlur"/></filter><linearGradient x1="0.4999920129776001" y1="0" x2="0.4999920129776001" y2="0.9999930262565613" id="master_svg3_44_26153"><stop offset="0%" stop-color="#E87D00" stop-opacity="1"/><stop offset="48.95833432674408%" stop-color="#E87D00" stop-opacity="0.6000000238418579"/><stop offset="100%" stop-color="#E87D00" stop-opacity="1"/></linearGradient><filter id="master_svg4_226_68949" filterUnits="objectBoundingBox" color-interpolation-filters="sRGB" x="-8" y="-8" width="47.5" height="58"><feFlood flood-opacity="0" result="BackgroundImageFix"/><feColorMatrix in="SourceAlpha" type="matrix" values="0 0 0 0 0 0 0 0 0 0 0 0 0 0 0 0 0 0 127 0"/><feOffset dy="0" dx="0"/><feGaussianBlur stdDeviation="2"/><feColorMatrix type="matrix" values="0 0 0 0 0.9098039269447327 0 0 0 0 0.4901960790157318 0 0 0 0 0 0 0 0 1 0"/><feBlend mode="normal" in2="BackgroundImageFix" result="effect1_dropShadow"/><feBlend mode="normal" in="SourceGraphic" in2="effect1_dropShadow" result="shape"/><feColorMatrix in="SourceAlpha" type="matrix" result="hardAlpha" values="0 0 0 0 0 0 0 0 0 0 0 0 0 0 0 0 0 0 127 0"/><feOffset dy="1.506428599357605" dx="0"/><feGaussianBlur stdDeviation="13.557857513427734"/><feComposite in2="hardAlpha" operator="arithmetic" k2="-1" k3="1"/><feColorMatrix type="matrix" values="0 0 0 0 0.9098039269447327 0 0 0 0 0.4901960790157318 0 0 0 0 0 0 0 0 0.501960813999176 0"/><feBlend mode="normal" in2="shape" result="effect2_innerShadow"/><feColorMatrix in="SourceAlpha" type="matrix" result="hardAlpha" values="0 0 0 0 0 0 0 0 0 0 0 0 0 0 0 0 0 0 127 0"/><feOffset dy="1.506428599357605" dx="0"/><feGaussianBlur stdDeviation="3.01285719871521"/><feComposite in2="hardAlpha" operator="arithmetic" k2="-1" k3="1"/><feColorMatrix type="matrix" values="0 0 0 0 0.9098039269447327 0 0 0 0 0.4901960790157318 0 0 0 0 0 0 0 0 1 0"/><feBlend mode="normal" in2="effect2_innerShadow" result="effect3_innerShadow"/><feColorMatrix in="SourceAlpha" type="matrix" result="hardAlpha" values="0 0 0 0 0 0 0 0 0 0 0 0 0 0 0 0 0 0 127 0"/><feOffset dy="1.506428599357605" dx="0"/><feGaussianBlur stdDeviation="6.778928756713867"/><feComposite in2="hardAlpha" operator="arithmetic" k2="-1" k3="1"/><feColorMatrix type="matrix" values="0 0 0 0 0.9098039269447327 0 0 0 0 0.4901960790157318 0 0 0 0 0 0 0 0 1 0"/><feBlend mode="normal" in2="effect3_innerShadow" result="effect4_innerShadow"/></filter></defs><g><g></g><g><g filter="url(#master_svg0_226_68957)"><path d="M23.8142,39.75C34.4812,39.75,43.1285,42.45754,43.1285,45.79746C43.1285,49.13738,34.4812,51.8449,23.8142,51.8449C13.14729,51.8449,4.5,49.13738,4.5,45.79746C4.5,42.45754,13.14729,39.75,23.8142,39.75Q23.8142,39.75,23.8142,39.75Z" fill-rule="evenodd" fill="#FFFFFF" fill-opacity="0.0019304481102153659"/><path d="M9.80858,40.408426Q3.3338900000000002,42.43571,3.3338900000000002,45.79746Q3.3338900000000002,49.15921,9.80858,51.1865Q15.6357,53.010999999999996,23.8142,53.010999999999996Q31.9927,53.010999999999996,37.8199,51.1865Q44.2946,49.15921,44.2946,45.79746Q44.2946,42.43571,37.8199,40.408426Q31.9927,38.58389,23.8142,38.58389Q15.6357,38.58389,9.80858,40.408426ZM6.7116299999999995,47.21416Q5.66611,46.44019,5.66611,45.79746Q5.66611,45.15473,6.7116299999999995,44.38076Q8.01976,43.41239,10.50545,42.634100000000004Q15.9923,40.91611,23.8142,40.91611Q31.6362,40.91611,37.123,42.634100000000004Q39.6087,43.41239,40.9169,44.38076Q41.9624,45.15473,41.9624,45.79746Q41.9624,46.44019,40.9169,47.21416Q39.6087,48.18253,37.123,48.96082Q31.6362,50.6788,23.8142,50.6788Q15.9923,50.6788,10.50545,48.96082Q8.01977,48.18253,6.7116299999999995,47.21416Z" fill-rule="evenodd" fill="url(#master_svg1_44_26158)" fill-opacity="1"/></g><g filter="url(#master_svg2_226_68956)"><path d="M23.814645312499998,42.39599609375C30.6606453125,42.39599609375,36.210345312499996,43.91898609375,36.210345312499996,45.79769609375C36.210345312499996,47.67639609375,30.6606453125,49.19938609375,23.814645312499998,49.19938609375C16.9687053125,49.19938609375,11.4189453125,47.67639609375,11.4189453125,45.79769609375C11.4189453125,43.91898609375,16.9687053125,42.39599609375,23.814645312499998,42.39599609375Q23.814645312499998,42.39599609375,23.814645312499998,42.39599609375Z" fill-rule="evenodd" fill="#FFFFFF" fill-opacity="0.0019304481102153659"/><path d="M14.7409653125,42.26779609375Q10.2528353125,43.49945609375,10.2528353125,45.79769609375Q10.2528353125,48.09593609375,14.7409653125,49.32758609375Q18.5230953125,50.36550609375,23.814645312499998,50.36549609375Q29.1062453125,50.36549609375,32.8883453125,49.32758609375Q37.376445312499996,48.09593609375,37.376445312499996,45.79769609375Q37.376445312499996,43.49945609375,32.8883453125,42.26779609375Q29.1062453125,41.22988609375,23.814645312499998,41.22988609375Q18.5230853125,41.22988609375,14.7409653125,42.26779609375ZM12.6143953125,45.79769609375Q12.7368653125,45.95479609375,13.0277653125,46.14353609375Q13.8169453125,46.65556609375,15.3581653125,47.07851609375Q18.8372953125,48.03327609375,23.814645312499998,48.03327609375Q28.7920453125,48.03327609375,32.271145312499996,47.07851609375Q33.8123453125,46.65556609375,34.6015453125,46.14353609375Q34.8924453125,45.95480609375,35.014945312500004,45.79769609375Q34.8924453125,45.64058609375,34.6015453125,45.45184609375Q33.8123453125,44.93981609375,32.271145312499996,44.51686609375Q28.7920453125,43.56210609375,23.814645312499998,43.56210609375Q18.8372853125,43.56210609375,15.3581653125,44.51686609375Q13.8169453125,44.93981609375,13.0277653125,45.45184609375Q12.7368653125,45.64058609375,12.6143953125,45.79769609375Z" fill-rule="evenodd" fill="url(#master_svg3_44_26153)" fill-opacity="1"/></g></g><g filter="url(#master_svg4_226_68949)"><path d="M24,6C15.30379,6,8.25,13.34026,8.25,22.3896C8.25,25.983,9.36598,29.3135,11.26102,32.0305Q11.26102,32.0305,21.6586,45.0649C22.8584,46.5689,25.1439,46.5707,26.3461,45.0686Q26.3461,45.0686,36.4585,32.4333L36.454499999999996,32.4249L36.4503,32.4167C38.5101,29.6353,39.75,26.1765,39.75,22.3896C39.75,13.34026,32.696200000000005,6,24,6Q24,6,24,6Z" fill-rule="evenodd" fill="#E87D00" fill-opacity="0.5490196347236633"/><path d="M39.75,22.3896C39.75,26.1765,38.5101,29.6353,36.4503,32.4167L36.454499999999996,32.4249L36.4585,32.4333L26.3461,45.0686C25.1439,46.5707,22.8584,46.5689,21.6586,45.0649L11.26102,32.0305C9.36598,29.3135,8.25,25.983,8.25,22.3896C8.25,13.34026,15.30379,6,24,6C32.696200000000005,6,39.75,13.34026,39.75,22.3896ZM35.2397,31.5201L34.9895,31.8579L25.17,44.1273Q24.721,44.6882,24.0026,44.6876Q23.2843,44.6871,22.8363,44.1255L12.46955,31.1298Q9.75643,27.2161,9.75643,22.3896Q9.75643,16.2091,13.950109999999999,11.845089999999999Q18.11946,7.50643,24,7.50643Q29.8805,7.50643,34.0499,11.845089999999999Q38.2436,16.2091,38.2436,22.3896Q38.2436,27.4641,35.2397,31.5201Z" fill-rule="evenodd" fill="#E87D00" fill-opacity="1"/></g></g></svg>
